<svg width="220" height="77" viewBox="0 0 220 77" fill="none" xmlns="http://www.w3.org/2000/svg">
<path d="M7.16269 18.4376L30.5008 2.22266L53.2831 18.4376V46.9534L30.5008 63.1683L7.16269 46.9534V18.4376Z" stroke="#495CC0" stroke-width="2"/>
<path d="M46.4305 47.3505L30.5564 57.1829V37.0786L46.4305 47.3505Z" fill="#495CC0"/>
<path d="M30.4951 33.1423L53.7294 47.3759L53.3067 18.1519L30.4951 33.1423Z" fill="#495CC0"/>
<path d="M30.495 33.1423L7.26071 47.3759L7.68336 18.1519L30.495 33.1423Z" fill="#495CC0"/>
<path d="M73.1017 22.7868H63.3461V17.508H89.5291V22.7868H79.6894V47.7874H73.1017V22.7868ZM92.6178 17.4657H101.993L109.721 40.7349L117.449 17.4657H126.782V47.7874H120.532L121.039 24.1805L113.269 47.7874H106.512L98.4881 23.9271L99.1212 47.7874H92.6178V17.4657ZM145.071 47.7874C143.155 47.7874 141.354 47.6466 139.665 47.3651C138.003 47.0554 136.469 46.1545 135.062 44.6624C133.85 43.3955 133.091 41.9737 132.781 40.3971C132.471 38.8204 132.317 37.2016 132.317 35.5405V17.4657H138.694V34.1046C138.665 36.92 138.975 39.0738 139.622 40.566C140.269 42.0582 142.269 42.8042 145.62 42.8042L153.137 42.762V47.7874H145.071ZM161.99 28.0657C161.793 28.8258 161.653 29.6001 161.568 30.3884C161.484 31.1485 161.441 31.9086 161.441 32.6688C161.441 33.4571 161.484 34.2455 161.568 35.0337C161.68 35.7939 161.821 36.54 161.99 37.272C162.3 38.567 162.807 39.6932 163.511 40.6504C164.242 41.6077 165.256 42.3116 166.552 42.762C167.029 42.9309 167.536 43.0576 168.072 43.1421C168.606 43.2265 169.141 43.2688 169.677 43.2688C170.211 43.2688 170.745 43.2265 171.281 43.1421C171.816 43.0576 172.322 42.9309 172.802 42.762C174.096 42.3116 175.11 41.6077 175.842 40.6504C176.574 39.6932 177.08 38.567 177.363 37.272C177.531 36.54 177.658 35.7939 177.743 35.0337C177.855 34.2455 177.912 33.4571 177.912 32.6688C177.912 31.9086 177.855 31.1485 177.743 30.3884C177.658 29.6001 177.531 28.84 177.363 28.1079C177.08 26.8128 176.574 25.6866 175.842 24.7295C175.11 23.744 174.096 23.0402 172.802 22.6179C172.322 22.449 171.816 22.3223 171.281 22.2379C170.745 22.1533 170.211 22.1112 169.677 22.1112C169.141 22.1112 168.606 22.1533 168.072 22.2379C167.536 22.3223 167.029 22.449 166.552 22.6179C165.256 23.0683 164.256 23.7723 163.553 24.7295C162.849 25.6866 162.328 26.8128 161.99 28.1079V28.0657ZM155.403 25.9119C156.134 23.6878 157.204 21.8859 158.612 20.5064C160.048 19.0986 161.919 18.0992 164.229 17.508C165.073 17.3109 165.946 17.156 166.847 17.0435C167.747 16.9308 168.648 16.8745 169.55 16.8745C170.507 16.8464 171.478 16.8887 172.464 17.0012C173.449 17.1138 174.392 17.2969 175.294 17.5502C177.545 18.1133 179.389 19.0986 180.825 20.5064C182.261 21.9141 183.317 23.73 183.993 25.9541C184.274 26.9676 184.485 28.0376 184.626 29.1636C184.795 30.2898 184.88 31.416 184.88 32.5421C184.88 33.7527 184.809 34.9352 184.669 36.0895C184.527 37.2439 184.302 38.3419 183.993 39.3835C183.317 41.664 182.247 43.508 180.783 44.9157C179.318 46.2953 177.433 47.2526 175.124 47.7874C174.223 48.0127 173.294 48.1675 172.337 48.252C171.379 48.3646 170.408 48.4209 169.423 48.4209C168.55 48.4209 167.677 48.3646 166.805 48.252C165.932 48.1394 165.073 47.9845 164.229 47.7874C161.948 47.2526 160.076 46.2953 158.612 44.9157C157.147 43.508 156.078 41.664 155.403 39.3835C155.12 38.3981 154.896 37.3283 154.727 36.174C154.586 35.0196 154.515 33.8513 154.515 32.6688C154.515 31.4864 154.586 30.318 154.727 29.1636C154.867 27.9812 155.093 26.9113 155.403 25.9541V25.9119ZM200.185 35.1604V29.7971H215.261V47.7874H201.536C199.791 47.7874 198.102 47.6466 196.469 47.3651C194.836 47.0554 193.316 46.3235 191.907 45.1691C190.219 43.7897 189.036 42.1144 188.36 40.1437C187.685 38.1447 187.319 36.1036 187.262 34.0202C187.235 33.5698 187.22 33.1334 187.22 32.711C187.249 32.2887 187.277 31.8665 187.304 31.4442C187.614 26.658 188.91 23.1388 191.189 20.8864C193.499 18.6341 196.948 17.508 201.536 17.508L215.261 17.4657V22.7024H201.536C198.524 22.7305 196.567 23.8004 195.666 25.9119C194.794 27.9953 194.357 30.2898 194.357 32.7955C194.357 32.8236 194.357 32.8519 194.357 32.88C194.357 32.88 194.357 32.8941 194.357 32.9222C194.357 35.4842 194.794 37.6943 195.666 39.5524C196.567 41.4106 198.524 42.3397 201.536 42.3397L208.715 42.2974V35.1604H200.185Z" fill="#495CC0"/>
<mask id="mask0_565_18" style="mask-type:alpha" maskUnits="userSpaceOnUse" x="87" y="54" width="108" height="13">
<path d="M194.562 54.285H87.1033V66.6283H194.562V54.285Z" fill="white"/>
<path d="M88.4966 63.3461H87.8294V55.4452H88.4966V63.3461ZM91.112 57.4747L91.1337 58.4786C91.3545 58.1168 91.6296 57.8419 91.9586 57.6537C92.2882 57.462 92.6512 57.3661 93.0491 57.3661C93.6786 57.3661 94.1477 57.5434 94.4548 57.898C94.7626 58.2525 94.918 58.7843 94.9217 59.4934V63.3461H94.2762V59.4879C94.2718 58.9633 94.16 58.5727 93.9393 58.3158C93.7222 58.0589 93.3729 57.9306 92.8923 57.9306C92.4908 57.9306 92.1343 58.0572 91.8228 58.3105C91.5156 58.5601 91.2877 58.8982 91.1395 59.3251V63.3461H90.4933V57.4747H91.112ZM97.6132 55.9716V57.4747H98.8287V58.0065H97.6132V61.919C97.6132 62.2446 97.6713 62.487 97.7867 62.6461C97.9058 62.8052 98.1033 62.8849 98.3785 62.8849C98.4867 62.8849 98.6624 62.8668 98.9049 62.8305L98.9318 63.3623C98.7619 63.4239 98.5302 63.4547 98.2369 63.4547C97.7918 63.4547 97.4687 63.3262 97.2654 63.0694C97.0628 62.8089 96.9619 62.4273 96.9619 61.9244V58.0065H95.8822V57.4747H96.9619V55.9716H97.6132ZM102.448 63.4547C101.949 63.4547 101.497 63.3317 101.091 63.0856C100.69 62.8397 100.377 62.4979 100.152 62.0601C99.9286 61.6187 99.8161 61.1249 99.8161 60.5787V60.3453C99.8161 59.781 99.925 59.2726 100.142 58.8205C100.362 58.3683 100.668 58.0137 101.059 57.7569C101.45 57.4964 101.873 57.3661 102.328 57.3661C103.041 57.3661 103.605 57.6104 104.022 58.0987C104.441 58.5835 104.651 59.2473 104.651 60.0903V60.4539H100.462V60.5787C100.462 61.2442 100.652 61.7996 101.032 62.2446C101.415 62.6859 101.896 62.9066 102.475 62.9066C102.823 62.9066 103.128 62.8433 103.392 62.7167C103.66 62.5901 103.902 62.3875 104.12 62.1089L104.526 62.4181C104.049 63.1092 103.356 63.4547 102.448 63.4547ZM102.328 57.9197C101.84 57.9197 101.428 58.0987 101.091 58.4569C100.759 58.8151 100.556 59.2962 100.483 59.9003H104.006V59.8298C103.987 59.2654 103.826 58.806 103.523 58.4515C103.218 58.097 102.821 57.9197 102.328 57.9197ZM108.628 58.0282C108.491 58.003 108.345 57.9903 108.189 57.9903C107.784 57.9903 107.441 58.1042 107.158 58.3321C106.879 58.5564 106.68 58.8838 106.561 59.3143V63.3461H105.916V57.4747H106.55L106.561 58.408C106.905 57.7134 107.457 57.3661 108.216 57.3661C108.398 57.3661 108.54 57.3897 108.645 57.4367L108.628 58.0282ZM110.278 57.4747L110.3 58.4786C110.521 58.1168 110.796 57.8419 111.125 57.6537C111.454 57.462 111.818 57.3661 112.216 57.3661C112.845 57.3661 113.314 57.5434 113.621 57.898C113.929 58.2525 114.084 58.7843 114.088 59.4934V63.3461H113.442V59.4879C113.439 58.9633 113.326 58.5727 113.105 58.3158C112.888 58.0589 112.539 57.9306 112.058 57.9306C111.657 57.9306 111.3 58.0572 110.989 58.3105C110.682 58.5601 110.454 58.8982 110.306 59.3251V63.3461H109.659V57.4747H110.278ZM119.477 63.3461C119.411 63.1616 119.37 62.8885 119.352 62.5268C119.123 62.8234 118.832 63.0531 118.478 63.2159C118.127 63.375 117.754 63.4547 117.36 63.4547C116.796 63.4547 116.338 63.2973 115.986 62.9826C115.64 62.6678 115.466 62.2699 115.466 61.7887C115.466 61.2171 115.703 60.7649 116.177 60.4321C116.654 60.0994 117.318 59.9329 118.168 59.9329H119.346V59.2654C119.346 58.8458 119.215 58.5166 118.955 58.2779C118.698 58.0355 118.322 57.9142 117.826 57.9142C117.375 57.9142 117 58.03 116.704 58.2615C116.407 58.4931 116.258 58.7717 116.258 59.0973L115.607 59.0919C115.607 58.6252 115.825 58.2217 116.258 57.8817C116.692 57.5381 117.226 57.3661 117.859 57.3661C118.514 57.3661 119.029 57.5309 119.406 57.86C119.785 58.1855 119.981 58.6414 119.992 59.2274V62.0057C119.992 62.5737 120.051 62.9988 120.171 63.281V63.3461H119.477ZM117.436 62.8795C117.871 62.8795 118.257 62.7746 118.597 62.5647C118.941 62.3549 119.191 62.0746 119.346 61.7236V60.4321H118.185C117.537 60.4393 117.031 60.5588 116.666 60.7903C116.3 61.0182 116.116 61.3329 116.116 61.7345C116.116 62.0637 116.238 62.3368 116.482 62.5538C116.727 62.7709 117.045 62.8795 117.436 62.8795ZM122.737 55.9716V57.4747H123.953V58.0065H122.737V61.919C122.737 62.2446 122.795 62.487 122.912 62.6461C123.03 62.8052 123.227 62.8849 123.503 62.8849C123.612 62.8849 123.786 62.8668 124.029 62.8305L124.056 63.3623C123.886 63.4239 123.655 63.4547 123.362 63.4547C122.917 63.4547 122.592 63.3262 122.39 63.0694C122.188 62.8089 122.085 62.4273 122.085 61.9244V58.0065H121.007V57.4747H122.085V55.9716H122.737ZM126.025 63.3461H125.374V57.4747H126.025V63.3461ZM125.261 55.7762C125.261 55.6532 125.301 55.5501 125.38 55.467C125.46 55.3801 125.568 55.3368 125.706 55.3368C125.843 55.3368 125.952 55.3801 126.031 55.467C126.114 55.5501 126.157 55.6532 126.157 55.7762C126.157 55.8993 126.114 56.0023 126.031 56.0856C125.952 56.1688 125.843 56.2104 125.706 56.2104C125.568 56.2104 125.46 56.1688 125.38 56.0856C125.301 56.0023 125.261 55.8993 125.261 55.7762ZM127.437 60.3236C127.437 59.7593 127.546 59.2509 127.763 58.7987C127.983 58.3465 128.293 57.9956 128.691 57.746C129.091 57.4928 129.546 57.3661 130.052 57.3661C130.834 57.3661 131.466 57.6411 131.951 58.1909C132.437 58.7373 132.679 59.4626 132.679 60.367V60.5027C132.679 61.0707 132.568 61.5826 132.348 62.0383C132.131 62.4905 131.824 62.8397 131.426 63.0856C131.028 63.3317 130.573 63.4547 130.063 63.4547C129.285 63.4547 128.653 63.1815 128.163 62.6353C127.679 62.0855 127.437 61.3583 127.437 60.4539V60.3236ZM128.088 60.5027C128.088 61.2044 128.269 61.7814 128.63 62.2337C128.996 62.6824 129.474 62.9066 130.063 62.9066C130.65 62.9066 131.123 62.6824 131.484 62.2337C131.85 61.7814 132.033 61.1864 132.033 60.4484V60.3236C132.033 59.875 131.95 59.4645 131.784 59.0919C131.617 58.7192 131.384 58.4316 131.083 58.229C130.783 58.0229 130.44 57.9197 130.052 57.9197C129.474 57.9197 129.001 58.1476 128.636 58.6034C128.27 59.0556 128.088 59.649 128.088 60.3833V60.5027ZM134.643 57.4747L134.665 58.4786C134.885 58.1168 135.161 57.8419 135.49 57.6537C135.818 57.462 136.182 57.3661 136.58 57.3661C137.21 57.3661 137.678 57.5434 137.986 57.898C138.294 58.2525 138.449 58.7843 138.453 59.4934V63.3461H137.806V59.4879C137.804 58.9633 137.691 58.5727 137.47 58.3158C137.253 58.0589 136.905 57.9306 136.423 57.9306C136.022 57.9306 135.665 58.0572 135.354 58.3105C135.046 58.5601 134.819 58.8982 134.67 59.3251V63.3461H134.025V57.4747H134.643ZM143.842 63.3461C143.775 63.1616 143.735 62.8885 143.716 62.5268C143.488 62.8234 143.197 63.0531 142.842 63.2159C142.491 63.375 142.119 63.4547 141.724 63.4547C141.161 63.4547 140.703 63.2973 140.352 62.9826C140.005 62.6678 139.831 62.2699 139.831 61.7887C139.831 61.2171 140.067 60.7649 140.542 60.4321C141.019 60.0994 141.683 59.9329 142.533 59.9329H143.71V59.2654C143.71 58.8458 143.58 58.5166 143.32 58.2779C143.063 58.0355 142.686 57.9142 142.191 57.9142C141.739 57.9142 141.364 58.03 141.069 58.2615C140.772 58.4931 140.623 58.7717 140.623 59.0973L139.972 59.0919C139.972 58.6252 140.189 58.2217 140.623 57.8817C141.058 57.5381 141.591 57.3661 142.225 57.3661C142.879 57.3661 143.394 57.5309 143.77 57.86C144.15 58.1855 144.346 58.6414 144.357 59.2274V62.0057C144.357 62.5737 144.416 62.9988 144.536 63.281V63.3461H143.842ZM141.801 62.8795C142.234 62.8795 142.622 62.7746 142.962 62.5647C143.306 62.3549 143.555 62.0746 143.71 61.7236V60.4321H142.55C141.902 60.4393 141.395 60.5588 141.029 60.7903C140.665 61.0182 140.482 61.3329 140.482 61.7345C140.482 62.0637 140.603 62.3368 140.845 62.5538C141.092 62.7709 141.41 62.8795 141.801 62.8795ZM146.82 63.3461H146.169V55.0111H146.82V63.3461ZM152.117 62.7818H156.018V63.3461H151.443V55.4452H152.117V62.7818ZM156.794 60.3236C156.794 59.7593 156.903 59.2509 157.119 58.7987C157.339 58.3465 157.65 57.9956 158.048 57.746C158.449 57.4928 158.903 57.3661 159.409 57.3661C160.191 57.3661 160.824 57.6411 161.308 58.1909C161.794 58.7373 162.036 59.4626 162.036 60.367V60.5027C162.036 61.0707 161.925 61.5826 161.705 62.0383C161.488 62.4905 161.18 62.8397 160.782 63.0856C160.384 63.3317 159.93 63.4547 159.42 63.4547C158.642 63.4547 158.009 63.1815 157.521 62.6353C157.036 62.0855 156.794 61.3583 156.794 60.4539V60.3236ZM157.445 60.5027C157.445 61.2044 157.626 61.7814 157.988 62.2337C158.353 62.6824 158.831 62.9066 159.42 62.9066C160.007 62.9066 160.48 62.6824 160.843 62.2337C161.207 61.7814 161.391 61.1864 161.391 60.4484V60.3236C161.391 59.875 161.307 59.4645 161.14 59.0919C160.974 58.7192 160.74 58.4316 160.44 58.229C160.14 58.0229 159.797 57.9197 159.409 57.9197C158.831 57.9197 158.359 58.1476 157.993 58.6034C157.627 59.0556 157.445 59.649 157.445 60.3833V60.5027ZM163.121 60.3562C163.121 59.4372 163.324 58.7102 163.729 58.1748C164.137 57.6357 164.691 57.3661 165.389 57.3661C166.189 57.3661 166.797 57.6845 167.212 58.3212L167.245 57.4747H167.853V63.2268C167.853 63.9828 167.641 64.5816 167.218 65.0229C166.795 65.4642 166.221 65.685 165.498 65.685C165.089 65.685 164.699 65.5927 164.325 65.4082C163.957 65.2273 163.665 64.9849 163.452 64.6811L163.815 64.2903C164.275 64.8546 164.821 65.1368 165.455 65.1368C165.997 65.1368 166.42 64.9759 166.724 64.6539C167.028 64.3355 167.186 63.8924 167.196 63.3244V62.5864C166.78 63.1652 166.175 63.4547 165.379 63.4547C164.699 63.4547 164.152 63.1833 163.74 62.6407C163.327 62.0981 163.121 61.3655 163.121 60.443V60.3562ZM163.777 60.4701C163.777 61.219 163.928 61.8105 164.227 62.2446C164.529 62.6751 164.951 62.8902 165.498 62.8902C166.297 62.8902 166.864 62.5322 167.196 61.8158V59.0864C167.045 58.7102 166.826 58.4244 166.539 58.229C166.254 58.03 165.911 57.9306 165.509 57.9306C164.962 57.9306 164.537 58.1457 164.233 58.5763C163.93 59.0031 163.777 59.6345 163.777 60.4701ZM170.273 63.3461H169.622V57.4747H170.273V63.3461ZM169.507 55.7762C169.507 55.6532 169.547 55.5501 169.627 55.467C169.706 55.3801 169.815 55.3368 169.953 55.3368C170.09 55.3368 170.199 55.3801 170.279 55.467C170.362 55.5501 170.403 55.6532 170.403 55.7762C170.403 55.8993 170.362 56.0023 170.279 56.0856C170.199 56.1688 170.09 56.2104 169.953 56.2104C169.815 56.2104 169.706 56.1688 169.627 56.0856C169.547 56.0023 169.507 55.8993 169.507 55.7762ZM175.559 61.8538C175.559 61.5319 175.429 61.2733 175.168 61.0779C174.911 60.8825 174.522 60.7306 174 60.6221C173.481 60.5099 173.075 60.3833 172.786 60.2422C172.5 60.0975 172.286 59.922 172.145 59.7158C172.008 59.5097 171.939 59.2599 171.939 58.967C171.939 58.504 172.132 58.1223 172.519 57.822C172.907 57.5182 173.403 57.3661 174.006 57.3661C174.661 57.3661 175.185 57.529 175.58 57.8546C175.978 58.1765 176.176 58.598 176.176 59.1189H175.525C175.525 58.7752 175.381 58.4895 175.092 58.2615C174.806 58.0336 174.444 57.9197 174.006 57.9197C173.579 57.9197 173.236 58.0156 172.975 58.2073C172.718 58.3953 172.59 58.6414 172.59 58.9453C172.59 59.2383 172.697 59.4662 172.911 59.6291C173.127 59.7882 173.52 59.9347 174.088 60.0686C174.66 60.2024 175.087 60.3453 175.369 60.4972C175.654 60.6491 175.866 60.8318 176.004 61.0454C176.141 61.2587 176.21 61.5174 176.21 61.8212C176.21 62.3169 176.009 62.713 175.608 63.0097C175.21 63.3063 174.689 63.4547 174.044 63.4547C173.361 63.4547 172.805 63.29 172.378 62.9608C171.956 62.628 171.744 62.2084 171.744 61.7019H172.395C172.42 62.0817 172.579 62.3783 172.873 62.5919C173.17 62.8016 173.56 62.9066 174.044 62.9066C174.496 62.9066 174.862 62.8071 175.141 62.6081C175.419 62.4091 175.559 62.1578 175.559 61.8538ZM178.684 55.9716V57.4747H179.9V58.0065H178.684V61.919C178.684 62.2446 178.742 62.487 178.857 62.6461C178.978 62.8052 179.174 62.8849 179.45 62.8849C179.558 62.8849 179.733 62.8668 179.975 62.8305L180.003 63.3623C179.833 63.4239 179.601 63.4547 179.309 63.4547C178.863 63.4547 178.539 63.3262 178.337 63.0694C178.134 62.8089 178.033 62.4273 178.033 61.9244V58.0065H176.953V57.4747H178.033V55.9716H178.684ZM181.973 63.3461H181.321V57.4747H181.973V63.3461ZM181.207 55.7762C181.207 55.6532 181.248 55.5501 181.326 55.467C181.406 55.3801 181.515 55.3368 181.652 55.3368C181.79 55.3368 181.898 55.3801 181.978 55.467C182.061 55.5501 182.103 55.6532 182.103 55.7762C182.103 55.8993 182.061 56.0023 181.978 56.0856C181.898 56.1688 181.79 56.2104 181.652 56.2104C181.515 56.2104 181.406 56.1688 181.326 56.0856C181.248 56.0023 181.207 55.8993 181.207 55.7762ZM185.912 62.9066C186.365 62.9066 186.742 62.78 187.046 62.5268C187.354 62.2699 187.52 61.9389 187.546 61.5336H188.169C188.152 61.8918 188.039 62.2193 187.834 62.5159C187.627 62.8089 187.352 63.0386 187.008 63.205C186.667 63.3715 186.303 63.4547 185.912 63.4547C185.142 63.4547 184.531 63.187 184.078 62.6516C183.63 62.1161 183.405 61.3962 183.405 60.4918V60.2965C183.405 59.7176 183.506 59.2057 183.709 58.7608C183.911 58.3158 184.2 57.9722 184.577 57.7297C184.958 57.4874 185.4 57.3661 185.907 57.3661C186.551 57.3661 187.081 57.558 187.497 57.9414C187.916 58.3249 188.14 58.8295 188.169 59.4553H187.546C187.517 58.9959 187.35 58.6252 187.046 58.3429C186.746 58.0608 186.367 57.9197 185.907 57.9197C185.321 57.9197 184.865 58.1313 184.539 58.5546C184.217 58.9778 184.056 59.5711 184.056 60.3344V60.5243C184.056 61.2733 184.217 61.8575 184.539 62.2771C184.865 62.6968 185.323 62.9066 185.912 62.9066ZM192.988 61.8538C192.988 61.5319 192.858 61.2733 192.598 61.0779C192.341 60.8825 191.952 60.7306 191.431 60.6221C190.91 60.5099 190.505 60.3833 190.215 60.2422C189.93 60.0975 189.716 59.922 189.575 59.7158C189.437 59.5097 189.368 59.2599 189.368 58.967C189.368 58.504 189.563 58.1223 189.949 57.822C190.336 57.5182 190.832 57.3661 191.436 57.3661C192.091 57.3661 192.615 57.529 193.01 57.8546C193.408 58.1765 193.607 58.598 193.607 59.1189H192.956C192.956 58.7752 192.811 58.4895 192.521 58.2615C192.236 58.0336 191.874 57.9197 191.436 57.9197C191.009 57.9197 190.665 58.0156 190.405 58.2073C190.148 58.3953 190.02 58.6414 190.02 58.9453C190.02 59.2383 190.126 59.4662 190.34 59.6291C190.558 59.7882 190.95 59.9347 191.518 60.0686C192.089 60.2024 192.515 60.3453 192.798 60.4972C193.084 60.6491 193.296 60.8318 193.434 61.0454C193.57 61.2587 193.639 61.5174 193.639 61.8212C193.639 62.3169 193.439 62.713 193.037 63.0097C192.639 63.3063 192.117 63.4547 191.474 63.4547C190.791 63.4547 190.235 63.29 189.808 62.9608C189.385 62.628 189.174 62.2084 189.174 61.7019H189.825C189.85 62.0817 190.01 62.3783 190.301 62.5919C190.598 62.8016 190.99 62.9066 191.474 62.9066C191.926 62.9066 192.292 62.8071 192.57 62.6081C192.849 62.4091 192.988 62.1578 192.988 61.8538Z" fill="black"/>
</mask>
<g mask="url(#mask0_565_18)">
</g>
<path d="M79.268 57.66V66H77.9V57.66H79.268ZM84.4001 59.28C84.9201 59.28 85.3841 59.388 85.7921 59.604C86.2081 59.82 86.5321 60.14 86.7641 60.564C86.9961 60.988 87.1121 61.5 87.1121 62.1V66H85.7561V62.304C85.7561 61.712 85.6081 61.26 85.3121 60.948C85.0161 60.628 84.6121 60.468 84.1001 60.468C83.5881 60.468 83.1801 60.628 82.8761 60.948C82.5801 61.26 82.4321 61.712 82.4321 62.304V66H81.0641V59.388H82.4321V60.144C82.6561 59.872 82.9401 59.66 83.2841 59.508C83.6361 59.356 84.0081 59.28 84.4001 59.28ZM90.453 60.504V64.164C90.453 64.412 90.509 64.592 90.621 64.704C90.741 64.808 90.941 64.86 91.221 64.86H92.061V66H90.981C90.365 66 89.893 65.856 89.565 65.568C89.237 65.28 89.073 64.812 89.073 64.164V60.504H88.293V59.388H89.073V57.744H90.453V59.388H92.061V60.504H90.453ZM99.3819 62.532C99.3819 62.78 99.3659 63.004 99.3339 63.204H94.2819C94.3219 63.732 94.5179 64.156 94.8699 64.476C95.2219 64.796 95.6539 64.956 96.1659 64.956C96.9019 64.956 97.4219 64.648 97.7259 64.032H99.2019C99.0019 64.64 98.6379 65.14 98.1099 65.532C97.5899 65.916 96.9419 66.108 96.1659 66.108C95.5339 66.108 94.9659 65.968 94.4619 65.688C93.9659 65.4 93.5739 65 93.2859 64.488C93.0059 63.968 92.8659 63.368 92.8659 62.688C92.8659 62.008 93.0019 61.412 93.2739 60.9C93.5539 60.38 93.9419 59.98 94.4379 59.7C94.9419 59.42 95.5179 59.28 96.1659 59.28C96.7899 59.28 97.3459 59.416 97.8339 59.688C98.3219 59.96 98.7019 60.344 98.9739 60.84C99.2459 61.328 99.3819 61.892 99.3819 62.532ZM97.9539 62.1C97.9459 61.596 97.7659 61.192 97.4139 60.888C97.0619 60.584 96.6259 60.432 96.1059 60.432C95.6339 60.432 95.2299 60.584 94.8939 60.888C94.5579 61.184 94.3579 61.588 94.2939 62.1H97.9539ZM102.096 60.348C102.296 60.012 102.56 59.752 102.888 59.568C103.224 59.376 103.62 59.28 104.076 59.28V60.696H103.728C103.192 60.696 102.784 60.832 102.504 61.104C102.232 61.376 102.096 61.848 102.096 62.52V66H100.728V59.388H102.096V60.348ZM108.67 59.28C109.19 59.28 109.654 59.388 110.062 59.604C110.478 59.82 110.802 60.14 111.034 60.564C111.266 60.988 111.382 61.5 111.382 62.1V66H110.026V62.304C110.026 61.712 109.878 61.26 109.582 60.948C109.286 60.628 108.882 60.468 108.37 60.468C107.858 60.468 107.45 60.628 107.146 60.948C106.85 61.26 106.702 61.712 106.702 62.304V66H105.334V59.388H106.702V60.144C106.926 59.872 107.21 59.66 107.554 59.508C107.906 59.356 108.278 59.28 108.67 59.28ZM112.671 62.664C112.671 62 112.807 61.412 113.079 60.9C113.359 60.388 113.735 59.992 114.207 59.712C114.687 59.424 115.215 59.28 115.791 59.28C116.311 59.28 116.763 59.384 117.147 59.592C117.539 59.792 117.851 60.044 118.083 60.348V59.388H119.463V66H118.083V65.016C117.851 65.328 117.535 65.588 117.135 65.796C116.735 66.004 116.279 66.108 115.767 66.108C115.199 66.108 114.679 65.964 114.207 65.676C113.735 65.38 113.359 64.972 113.079 64.452C112.807 63.924 112.671 63.328 112.671 62.664ZM118.083 62.688C118.083 62.232 117.987 61.836 117.795 61.5C117.611 61.164 117.367 60.908 117.063 60.732C116.759 60.556 116.431 60.468 116.079 60.468C115.727 60.468 115.399 60.556 115.095 60.732C114.791 60.9 114.543 61.152 114.351 61.488C114.167 61.816 114.075 62.208 114.075 62.664C114.075 63.12 114.167 63.52 114.351 63.864C114.543 64.208 114.791 64.472 115.095 64.656C115.407 64.832 115.735 64.92 116.079 64.92C116.431 64.92 116.759 64.832 117.063 64.656C117.367 64.48 117.611 64.224 117.795 63.888C117.987 63.544 118.083 63.144 118.083 62.688ZM122.855 60.504V64.164C122.855 64.412 122.911 64.592 123.023 64.704C123.143 64.808 123.343 64.86 123.623 64.86H124.463V66H123.383C122.767 66 122.295 65.856 121.967 65.568C121.639 65.28 121.475 64.812 121.475 64.164V60.504H120.695V59.388H121.475V57.744H122.855V59.388H124.463V60.504H122.855ZM126.42 58.512C126.172 58.512 125.964 58.428 125.796 58.26C125.628 58.092 125.544 57.884 125.544 57.636C125.544 57.388 125.628 57.18 125.796 57.012C125.964 56.844 126.172 56.76 126.42 56.76C126.66 56.76 126.864 56.844 127.032 57.012C127.2 57.18 127.284 57.388 127.284 57.636C127.284 57.884 127.2 58.092 127.032 58.26C126.864 58.428 126.66 58.512 126.42 58.512ZM127.092 59.388V66H125.724V59.388H127.092ZM131.756 66.108C131.132 66.108 130.568 65.968 130.064 65.688C129.56 65.4 129.164 65 128.876 64.488C128.588 63.968 128.444 63.368 128.444 62.688C128.444 62.016 128.592 61.42 128.888 60.9C129.184 60.38 129.588 59.98 130.1 59.7C130.612 59.42 131.184 59.28 131.816 59.28C132.448 59.28 133.02 59.42 133.532 59.7C134.044 59.98 134.448 60.38 134.744 60.9C135.04 61.42 135.188 62.016 135.188 62.688C135.188 63.36 135.036 63.956 134.732 64.476C134.428 64.996 134.012 65.4 133.484 65.688C132.964 65.968 132.388 66.108 131.756 66.108ZM131.756 64.92C132.108 64.92 132.436 64.836 132.74 64.668C133.052 64.5 133.304 64.248 133.496 63.912C133.688 63.576 133.784 63.168 133.784 62.688C133.784 62.208 133.692 61.804 133.508 61.476C133.324 61.14 133.08 60.888 132.776 60.72C132.472 60.552 132.144 60.468 131.792 60.468C131.44 60.468 131.112 60.552 130.808 60.72C130.512 60.888 130.276 61.14 130.1 61.476C129.924 61.804 129.836 62.208 129.836 62.688C129.836 63.4 130.016 63.952 130.376 64.344C130.744 64.728 131.204 64.92 131.756 64.92ZM139.877 59.28C140.397 59.28 140.861 59.388 141.269 59.604C141.685 59.82 142.009 60.14 142.241 60.564C142.473 60.988 142.589 61.5 142.589 62.1V66H141.233V62.304C141.233 61.712 141.085 61.26 140.789 60.948C140.493 60.628 140.089 60.468 139.577 60.468C139.065 60.468 138.657 60.628 138.353 60.948C138.057 61.26 137.909 61.712 137.909 62.304V66H136.541V59.388H137.909V60.144C138.133 59.872 138.417 59.66 138.761 59.508C139.113 59.356 139.485 59.28 139.877 59.28ZM143.878 62.664C143.878 62 144.014 61.412 144.286 60.9C144.566 60.388 144.942 59.992 145.414 59.712C145.894 59.424 146.422 59.28 146.998 59.28C147.518 59.28 147.97 59.384 148.354 59.592C148.746 59.792 149.058 60.044 149.29 60.348V59.388H150.67V66H149.29V65.016C149.058 65.328 148.742 65.588 148.342 65.796C147.942 66.004 147.486 66.108 146.974 66.108C146.406 66.108 145.886 65.964 145.414 65.676C144.942 65.38 144.566 64.972 144.286 64.452C144.014 63.924 143.878 63.328 143.878 62.664ZM149.29 62.688C149.29 62.232 149.194 61.836 149.002 61.5C148.818 61.164 148.574 60.908 148.27 60.732C147.966 60.556 147.638 60.468 147.286 60.468C146.934 60.468 146.606 60.556 146.302 60.732C145.998 60.9 145.75 61.152 145.558 61.488C145.374 61.816 145.282 62.208 145.282 62.664C145.282 63.12 145.374 63.52 145.558 63.864C145.75 64.208 145.998 64.472 146.302 64.656C146.614 64.832 146.942 64.92 147.286 64.92C147.638 64.92 147.966 64.832 148.27 64.656C148.574 64.48 148.818 64.224 149.002 63.888C149.194 63.544 149.29 63.144 149.29 62.688ZM153.834 57.12V66H152.466V57.12H153.834ZM160.116 64.896H162.936V66H158.748V57.66H160.116V64.896ZM166.948 66.108C166.324 66.108 165.76 65.968 165.256 65.688C164.752 65.4 164.356 65 164.068 64.488C163.78 63.968 163.636 63.368 163.636 62.688C163.636 62.016 163.784 61.42 164.08 60.9C164.376 60.38 164.78 59.98 165.292 59.7C165.804 59.42 166.376 59.28 167.008 59.28C167.64 59.28 168.212 59.42 168.724 59.7C169.236 59.98 169.64 60.38 169.936 60.9C170.232 61.42 170.38 62.016 170.38 62.688C170.38 63.36 170.228 63.956 169.924 64.476C169.62 64.996 169.204 65.4 168.676 65.688C168.156 65.968 167.58 66.108 166.948 66.108ZM166.948 64.92C167.3 64.92 167.628 64.836 167.932 64.668C168.244 64.5 168.496 64.248 168.688 63.912C168.88 63.576 168.976 63.168 168.976 62.688C168.976 62.208 168.884 61.804 168.7 61.476C168.516 61.14 168.272 60.888 167.968 60.72C167.664 60.552 167.336 60.468 166.984 60.468C166.632 60.468 166.304 60.552 166 60.72C165.704 60.888 165.468 61.14 165.292 61.476C165.116 61.804 165.028 62.208 165.028 62.688C165.028 63.4 165.208 63.952 165.568 64.344C165.936 64.728 166.396 64.92 166.948 64.92ZM174.396 59.28C174.908 59.28 175.36 59.384 175.752 59.592C176.152 59.792 176.464 60.044 176.688 60.348V59.388H178.068V66.108C178.068 66.716 177.94 67.256 177.684 67.728C177.428 68.208 177.056 68.584 176.568 68.856C176.088 69.128 175.512 69.264 174.84 69.264C173.944 69.264 173.2 69.052 172.608 68.628C172.016 68.212 171.68 67.644 171.6 66.924H172.956C173.06 67.268 173.28 67.544 173.616 67.752C173.96 67.968 174.368 68.076 174.84 68.076C175.392 68.076 175.836 67.908 176.172 67.572C176.516 67.236 176.688 66.748 176.688 66.108V65.004C176.456 65.316 176.14 65.58 175.74 65.796C175.348 66.004 174.9 66.108 174.396 66.108C173.82 66.108 173.292 65.964 172.812 65.676C172.34 65.38 171.964 64.972 171.684 64.452C171.412 63.924 171.276 63.328 171.276 62.664C171.276 62 171.412 61.412 171.684 60.9C171.964 60.388 172.34 59.992 172.812 59.712C173.292 59.424 173.82 59.28 174.396 59.28ZM176.688 62.688C176.688 62.232 176.592 61.836 176.4 61.5C176.216 61.164 175.972 60.908 175.668 60.732C175.364 60.556 175.036 60.468 174.684 60.468C174.332 60.468 174.004 60.556 173.7 60.732C173.396 60.9 173.148 61.152 172.956 61.488C172.772 61.816 172.68 62.208 172.68 62.664C172.68 63.12 172.772 63.52 172.956 63.864C173.148 64.208 173.396 64.472 173.7 64.656C174.012 64.832 174.34 64.92 174.684 64.92C175.036 64.92 175.364 64.832 175.668 64.656C175.972 64.48 176.216 64.224 176.4 63.888C176.592 63.544 176.688 63.144 176.688 62.688ZM180.561 58.512C180.313 58.512 180.105 58.428 179.937 58.26C179.769 58.092 179.685 57.884 179.685 57.636C179.685 57.388 179.769 57.18 179.937 57.012C180.105 56.844 180.313 56.76 180.561 56.76C180.801 56.76 181.005 56.844 181.173 57.012C181.341 57.18 181.425 57.388 181.425 57.636C181.425 57.884 181.341 58.092 181.173 58.26C181.005 58.428 180.801 58.512 180.561 58.512ZM181.233 59.388V66H179.865V59.388H181.233ZM185.429 66.108C184.909 66.108 184.441 66.016 184.025 65.832C183.617 65.64 183.293 65.384 183.053 65.064C182.813 64.736 182.685 64.372 182.669 63.972H184.085C184.109 64.252 184.241 64.488 184.481 64.68C184.729 64.864 185.037 64.956 185.405 64.956C185.789 64.956 186.085 64.884 186.293 64.74C186.509 64.588 186.617 64.396 186.617 64.164C186.617 63.916 186.497 63.732 186.257 63.612C186.025 63.492 185.653 63.36 185.141 63.216C184.645 63.08 184.241 62.948 183.929 62.82C183.617 62.692 183.345 62.496 183.113 62.232C182.889 61.968 182.777 61.62 182.777 61.188C182.777 60.836 182.881 60.516 183.089 60.228C183.297 59.932 183.593 59.7 183.977 59.532C184.369 59.364 184.817 59.28 185.321 59.28C186.073 59.28 186.677 59.472 187.133 59.856C187.597 60.232 187.845 60.748 187.877 61.404H186.509C186.485 61.108 186.365 60.872 186.149 60.696C185.933 60.52 185.641 60.432 185.273 60.432C184.913 60.432 184.637 60.5 184.445 60.636C184.253 60.772 184.157 60.952 184.157 61.176C184.157 61.352 184.221 61.5 184.349 61.62C184.477 61.74 184.633 61.836 184.817 61.908C185.001 61.972 185.273 62.056 185.633 62.16C186.113 62.288 186.505 62.42 186.809 62.556C187.121 62.684 187.389 62.876 187.613 63.132C187.837 63.388 187.953 63.728 187.961 64.152C187.961 64.528 187.857 64.864 187.649 65.16C187.441 65.456 187.145 65.688 186.761 65.856C186.385 66.024 185.941 66.108 185.429 66.108ZM191.035 60.504V64.164C191.035 64.412 191.091 64.592 191.203 64.704C191.323 64.808 191.523 64.86 191.803 64.86H192.643V66H191.563C190.947 66 190.475 65.856 190.147 65.568C189.819 65.28 189.655 64.812 189.655 64.164V60.504H188.875V59.388H189.655V57.744H191.035V59.388H192.643V60.504H191.035ZM194.6 58.512C194.352 58.512 194.144 58.428 193.976 58.26C193.808 58.092 193.724 57.884 193.724 57.636C193.724 57.388 193.808 57.18 193.976 57.012C194.144 56.844 194.352 56.76 194.6 56.76C194.84 56.76 195.044 56.844 195.212 57.012C195.38 57.18 195.464 57.388 195.464 57.636C195.464 57.884 195.38 58.092 195.212 58.26C195.044 58.428 194.84 58.512 194.6 58.512ZM195.272 59.388V66H193.904V59.388H195.272ZM196.612 62.688C196.612 62.008 196.748 61.412 197.02 60.9C197.3 60.38 197.684 59.98 198.172 59.7C198.66 59.42 199.22 59.28 199.852 59.28C200.652 59.28 201.312 59.472 201.832 59.856C202.36 60.232 202.716 60.772 202.9 61.476H201.424C201.304 61.148 201.112 60.892 200.848 60.708C200.584 60.524 200.252 60.432 199.852 60.432C199.292 60.432 198.844 60.632 198.508 61.032C198.18 61.424 198.016 61.976 198.016 62.688C198.016 63.4 198.18 63.956 198.508 64.356C198.844 64.756 199.292 64.956 199.852 64.956C200.644 64.956 201.168 64.608 201.424 63.912H202.9C202.708 64.584 202.348 65.12 201.82 65.52C201.292 65.912 200.636 66.108 199.852 66.108C199.22 66.108 198.66 65.968 198.172 65.688C197.684 65.4 197.3 65 197.02 64.488C196.748 63.968 196.612 63.368 196.612 62.688ZM206.663 66.108C206.143 66.108 205.675 66.016 205.259 65.832C204.851 65.64 204.527 65.384 204.287 65.064C204.047 64.736 203.919 64.372 203.903 63.972H205.319C205.343 64.252 205.475 64.488 205.715 64.68C205.963 64.864 206.271 64.956 206.639 64.956C207.023 64.956 207.319 64.884 207.527 64.74C207.743 64.588 207.851 64.396 207.851 64.164C207.851 63.916 207.731 63.732 207.491 63.612C207.259 63.492 206.887 63.36 206.375 63.216C205.879 63.08 205.475 62.948 205.163 62.82C204.851 62.692 204.579 62.496 204.347 62.232C204.123 61.968 204.011 61.62 204.011 61.188C204.011 60.836 204.115 60.516 204.323 60.228C204.531 59.932 204.827 59.7 205.211 59.532C205.603 59.364 206.051 59.28 206.555 59.28C207.307 59.28 207.911 59.472 208.367 59.856C208.831 60.232 209.079 60.748 209.111 61.404H207.743C207.719 61.108 207.599 60.872 207.383 60.696C207.167 60.52 206.875 60.432 206.507 60.432C206.147 60.432 205.871 60.5 205.679 60.636C205.487 60.772 205.391 60.952 205.391 61.176C205.391 61.352 205.455 61.5 205.583 61.62C205.711 61.74 205.867 61.836 206.051 61.908C206.235 61.972 206.507 62.056 206.867 62.16C207.347 62.288 207.739 62.42 208.043 62.556C208.355 62.684 208.623 62.876 208.847 63.132C209.071 63.388 209.187 63.728 209.195 64.152C209.195 64.528 209.091 64.864 208.883 65.16C208.675 65.456 208.379 65.688 207.995 65.856C207.619 66.024 207.175 66.108 206.663 66.108Z" fill="#495CC0"/>
</svg>
